<?xml version="1.0" encoding="utf-8"?>
<!-- Generator: Adobe Illustrator 26.0.0, SVG Export Plug-In . SVG Version: 6.00 Build 0)  -->
<svg version="1.1" id="Layer_1" xmlns="http://www.w3.org/2000/svg" xmlns:xlink="http://www.w3.org/1999/xlink" x="0px" y="0px"
	 viewBox="0 0 1080 500" style="enable-background:new 0 0 1080 500;" xml:space="preserve">
<style type="text/css">
	.st0{display:none;}
	.st1{fill:#FFFFFF;}
	.st2{fill:#231F20;stroke:#231F20;stroke-miterlimit:10;}
	.st3{fill:#231F20;}
	.st4{display:none;fill:#231F20;}
</style>
<desc>Created with Fabric.js 5.2.4</desc>
<g id="_x37_ce8537a-47a6-472a-82e0-e1e1ded3c268" transform="matrix(0 0 0 0 0 0)" class="st0">
</g>
<g id="_x31_d71aafa-466b-43fa-92c2-a693393f99ef" transform="matrix(1 0 0 1 540 250)" class="st0">
	<rect x="-540" y="-250" vector-effect="non-scaling-stroke" class="st1" width="1080" height="500"/>
</g>
<g>
	<path class="st2" d="M246,435.8c-5.4,0-10.9-0.2-16.4-0.6c-17.3-1.4-35.4-5.2-53.7-11.1c-20.9-6.9-38.5-15.7-52.3-26.1
		c-26.4-19.9-47.3-47-62-80.6c-14.8-33.6-21.8-69.9-20.9-107.8c0.9-36.2,8.7-69.6,23.1-99.3C78.5,80.7,99,56.6,125,38.9
		c25.7-17.8,56-28.6,90-32.1c8.1-0.8,16.2-1.3,24.2-1.3c25.5,0,51,4.4,75.7,12.9c29.6,10.5,55.1,26.3,75.8,47
		c20.8,20.6,35.6,44.9,44,72.2c7.9,26.8,11.3,54.9,10.1,83.8c-1.6,33.1-9.1,64.5-22.3,93.5c-13.2,29.1-31.5,54-54.3,74
		C333.1,420,292,435.8,246,435.8z M239.1,77.4c-5,0-10,0.2-15,0.7c-22.7,2.1-42.4,8.8-58.5,19.9c-15.9,10.9-28.6,26.4-37.8,46.1
		c-9.5,20-14.6,42.5-15.1,67c-0.7,26.9,3.9,52.3,13.6,75.5c9.8,22.9,23.4,41.1,40.5,54c17.2,12.9,40.2,20.5,68.2,22.8
		c3.3,0.2,6.7,0.4,10,0.4c28.6,0,54.1-9.7,75.8-28.8c15.1-13.3,27.4-30.6,36.6-51.2c9.2-20.6,14.5-42.8,15.6-66
		c0.8-20.5-1.6-40.6-7.2-59.5c-4.9-16.1-13.9-30.6-26.8-43.1c-13.1-12.6-29.3-22.4-48.2-29.1C274.1,80.4,256.7,77.4,239.1,77.4z"/>
	<path vector-effect="non-scaling-stroke" class="st2" d="M380.1,218.3c0.9-21.5-1.6-42.1-7.5-61.8c-5.3-17.3-14.9-32.7-28.6-46.1
		c-13.9-13.4-30.8-23.6-50.7-30.7c-22.7-7.9-45.9-10.7-69.8-8.5c-24,2.2-44.7,9.3-61.8,21.1c-17,11.7-30.4,28-40.2,48.9
		c-10,21-15.2,44.2-15.7,69.8c-0.7,28,4,54.1,14.2,78.3c10.3,24.2,24.6,43.2,42.8,56.9c18.4,13.7,42.3,21.8,71.9,24.2
		c34.9,2.6,65.2-7.5,90.9-30.1c16-14.1,28.8-31.9,38.4-53.6C373.5,265.3,378.9,242.5,380.1,218.3 M312.6,25
		c28.7,10.1,53.1,25.2,73.2,45.3c20.1,19.9,34.2,43,42.2,69.3c7.7,26.1,11,53.2,9.8,81.4c-1.5,32.3-8.8,62.6-21.6,90.9
		c-12.9,28.3-30.4,52.2-52.6,71.6c-38,33.7-82.4,48.5-133.4,44.6c-16.8-1.4-34.2-5-52-10.8c-20.3-6.7-37-15-50.2-25
		c-25.6-19.2-45.5-45.2-59.8-77.8c-14.4-32.8-21.2-67.8-20.4-104.9c0.9-35.4,8.3-67.5,22.4-96.3c14.1-28.7,33.7-51.6,58.7-68.8
		c24.9-17.2,53.8-27.5,86.8-30.9C248.7,10.3,281,14.1,312.6,25"/>
	<g transform="matrix(1.47 0 0 -1.47 474.41 418.44)">
		<g vector-effect="non-scaling-stroke">
			<path class="st3" d="M-38.1-10l2.2,1c4.9,2.3,7.6,5.9,8,11c0.3,3.6-0.3,7.4-2,11.2c-1.7,3.9-4,6.8-6.7,8.7l-1.9,1.4l21,29.7
				l1.9-1.4c8-5.7,14.4-13.5,18.8-23.2C7.5,18.8,9.3,8.8,8.3-1.3c-0.8-9-3.8-17.1-8.8-24.1c-5.1-7.1-11.9-12.7-20.2-16.5l-2.2-1
				L-38.1-10z"/>
			<path class="st3" d="M-17.1,49.7C-9.3,44.2-3.3,36.8,1,27.5C5.2,18.2,6.9,8.7,5.9-1.1C5.1-9.7,2.4-17.3-2.4-24
				c-4.9-6.8-11.3-12-19.2-15.7l-13.3,28.6c5.7,2.7,8.9,7,9.4,13c0.4,4-0.3,8.1-2.2,12.3c-1.9,4.3-4.4,7.5-7.5,9.7L-17.1,49.7
				 M-18.2,56.4l-2.8-3.9l-18.2-25.8l-2.7-3.9l3.9-2.7c2.4-1.7,4.3-4.3,5.9-7.8c1.5-3.5,2.1-6.8,1.8-10l0,0l0,0
				C-30.7-2-32.8-4.9-37-6.8l-4.3-2l2-4.3L-26-41.7l2-4.3l4.3,2c8.7,4,15.8,9.8,21.1,17.3c5.3,7.4,8.4,15.9,9.2,25.3
				c1,10.5-0.8,20.9-5.3,31l0,0l0,0c-4.6,10-11.2,18.1-19.6,24.1L-18.2,56.4L-18.2,56.4z"/>
		</g>
	</g>
	<g transform="matrix(1.47 0 0 -1.47 605.78 279.7)">
		<g vector-effect="non-scaling-stroke">
			<polygon class="st3" points="-48.8,-89.5 -48.8,-59.1 -29.7,-59.1 -30.5,-15.2 -78.7,69.2 -96.6,69.2 -96.6,99.5 -37.1,99.5 
				-37.1,69.2 -45.2,69.2 -15.2,16.5 14.7,60.1 3.6,60.9 5.5,91.2 67.6,86.6 65.8,56.3 48.5,57.6 -1.9,-15.6 -1.2,-59.1 16.1,-59.1 
				16.1,-89.5 			"/>
			<path class="st3" d="M-39.5,97.1V71.5h-9.8L-15.4,12L19,62.2L6.2,63.1l1.6,25.6l57.4-4.2l-1.6-25.6l-16.3,1.3l-51.6-75l0.8-46.6
				h17.2v-25.6h-60.1v25.6h19.1l-0.9,46.9l-49.2,86.1h-16.9v25.6H-39.5 M-34.7,101.9h-4.8h-54.7H-99v-4.8V71.5v-4.8h4.8h14.1
				l47.2-82.7l0.7-40.9h-14.3h-4.8v-4.8v-25.6v-4.8h4.8h60.1h4.8v4.8v25.6v4.8h-4.8H1.2L0.4-16.4l49.2,71.5l13.5-1l4.8-0.4l0.3,4.8
				l1.6,25.6l0.3,4.7l-4.7,0.3L8.1,93.4l-4.8,0.4L3,89L1.4,63.4l-0.3-4.7l4.7-0.3l4.6-0.3L-15,21l-26.1,45.8h1.6h4.8v4.8v25.6V101.9
				L-34.7,101.9z"/>
		</g>
	</g>
	<g transform="matrix(1.47 0 0 -1.47 789.59 296.39)">
		<g vector-effect="non-scaling-stroke">
			<path class="st3" d="M4-61.5l18.5,0.8l-6.7,25.5L-42.2-33L-49.4-51l8.9-0.3l-1-28.5l-56.1,2l1,28.5l16.9-0.6l47.8,121.2
				l-13.6,0.2L-45,100L30,99.1l-0.4-28.5l-12.5,0.1L51.7-59.4l15.6,0.7l1.1-28.5L5.2-90L4-61.5z M8-6.3L-8,53.9L-31.1-4.7L8-6.3z"/>
			<path class="st3" d="M-42.6,97.6l70.2-0.8L27.2,73L14,73.1l35.9-135l15.2,0.6L66-85L7.5-87.5L6.5-63.8l19.1,0.8l-8,30.1
				l-61.4,2.3l-9-22.8l9.9-0.3l-0.8-23.7l-51.3,1.8l0.8,23.7l16.2-0.5l49.7,125.9l-14.6,0.2L-42.6,97.6 M11.1-8.8L-7.5,61.5L-34.6-7
				L11.1-8.8 M-47.3,102.4l-0.1-4.8l-0.3-23.7l-0.1-4.8L-43,69l7.7-0.1l-46-116.4l-12.9,0.4l-4.7,0.2l-0.2-4.7l-0.8-23.7l-0.2-4.8
				l4.8-0.2l51.3-1.8l4.8-0.2l0.2,4.8l0.8,23.7L-38-49l-4.8,0.2l-3.1,0.1l5.3,13.4l54.5-2.1l5.5-21L6.2-59l-4.8-0.2L1.7-64l1.1-23.7
				L3-92.5l4.8,0.2l58.5,2.5l4.7,0.2l-0.2,4.7l-1,23.7l-0.2,4.8l-4.8-0.2L53.5-57L20.2,68.3l7-0.1l4.7,0l0.1,4.7l0.3,23.7l0.1,4.8
				l-4.8,0.1l-70.2,0.8L-47.3,102.4L-47.3,102.4z M-27.7-2.5l19.3,48.8L4.9-3.8L-27.7-2.5L-27.7-2.5z"/>
		</g>
	</g>
	<g transform="matrix(1.47 0 0 -1.47 980.45 252.55)">
		<g>
			<polygon class="st3" points="-35.6,-57.1 -28.4,134.9 11.4,133.3 4.3,-58.7 			"/>
			<path class="st3" d="M-26.1,132.4l35-1.4L2-56.2l-35.2,1.4L-26.1,132.4 M-30.7,137.3l-0.2-4.8l-7-187.2l-0.2-4.7l4.7-0.2L1.8-61
				l4.8-0.2l0.2,4.8l6.9,187.2l0.2,4.7l-4.7,0.2l-35,1.4L-30.7,137.3L-30.7,137.3z"/>
		</g>
		<g>
			<path class="st3" d="M-17-124.8c-6.5,0-12,2.3-16.5,6.8c-4.5,4.6-6.8,10.2-6.8,16.5c0,6.4,2.3,11.9,6.8,16.4
				c4.5,4.6,10.1,7,16.5,7c6.4,0,11.9-2.3,16.4-7c4.6-4.5,6.9-10,6.9-16.4c0-6.4-2.3-11.9-7-16.5C-5.2-122.5-10.7-124.8-17-124.8z"
				/>
			<path class="st3" d="M-17-80.5c5.7,0,10.6-2.1,14.7-6.3c4.2-4.1,6.3-9,6.3-14.7c0-5.7-2.1-10.7-6.3-14.9c-4.1-4.1-9-6.1-14.7-6.1
				c-5.8,0-10.8,2-14.9,6.1c-4.1,4.2-6.1,9.1-6.1,14.9c0,5.7,2,10.6,6.1,14.7C-27.8-82.6-22.9-80.5-17-80.5 M-17-75.7
				c-7.1,0-13.3-2.6-18.2-7.7c-5-5-7.5-11-7.5-18c0-7,2.5-13.1,7.5-18.2l0,0l0,0c5-5,11.1-7.5,18.2-7.5c7,0,13.1,2.5,18.1,7.5
				c5.1,5.1,7.6,11.2,7.6,18.2c0,7-2.6,13.1-7.6,18.1C-3.9-78.3-10-75.7-17-75.7L-17-75.7z"/>
		</g>
	</g>
</g>
<path class="st4" d="M265.4,441.2c-5.4,0-10.9-0.2-16.4-0.6c-17.3-1.4-35.4-5.2-53.7-11.1c-20.9-6.9-38.5-15.7-52.3-26.1
	c-26.4-19.9-47.3-47-62-80.6c-14.8-33.6-21.8-69.9-20.9-107.8c0.9-36.2,8.7-69.6,23.1-99.3C97.8,86,118.4,62,144.3,44.2
	c25.7-17.8,56-28.6,90-32.1c8.1-0.8,16.2-1.3,24.2-1.3c25.5,0,51,4.4,75.7,12.9c29.6,10.5,55.1,26.3,75.8,47
	c20.8,20.6,35.6,44.9,44,72.2c7.9,26.8,11.3,54.9,10.1,83.8c-1.6,33.1-9.1,64.5-22.3,93.5c-13.2,29.1-31.5,54-54.3,74
	C352.5,425.4,311.4,441.2,265.4,441.2z M258.5,82.8c-5,0-10,0.2-15,0.7c-22.7,2.1-42.4,8.8-58.5,19.9
	c-15.9,10.9-28.6,26.4-37.8,46.1c-9.5,20-14.6,42.5-15.1,67c-0.7,26.9,3.9,52.3,13.6,75.5c9.8,22.9,23.4,41.1,40.5,54
	c17.2,12.9,40.2,20.5,68.2,22.8c3.3,0.2,6.7,0.4,10,0.4c28.6,0,54.1-9.7,75.8-28.8c15.1-13.3,27.4-30.6,36.6-51.2
	c9.2-20.6,14.5-42.8,15.6-66c0.8-20.5-1.6-40.6-7.2-59.5c-4.9-16.1-13.9-30.6-26.8-43.1c-13.1-12.6-29.3-22.4-48.2-29.1
	C293.5,85.7,276.1,82.8,258.5,82.8z"/>
<path vector-effect="non-scaling-stroke" class="st1" d="M399.5,223.6c0.9-21.5-1.6-42.1-7.5-61.8c-5.3-17.3-14.9-32.7-28.6-46.1
	C349.5,102.3,332.6,92,312.6,85c-22.7-7.9-45.9-10.7-69.8-8.5c-24,2.2-44.7,9.3-61.8,21.1c-17,11.7-30.4,28-40.2,48.9
	c-10,21-15.2,44.2-15.7,69.8c-0.7,28,4,54.1,14.2,78.3c10.3,24.2,24.6,43.2,42.8,56.9c18.4,13.7,42.3,21.8,71.9,24.2
	c34.9,2.6,65.2-7.5,90.9-30.1c16-14.1,28.8-31.9,38.4-53.6C392.8,270.6,398.3,247.8,399.5,223.6 M332,30.4
	c28.7,10.1,53.1,25.2,73.2,45.3c20.1,19.9,34.2,43,42.2,69.3c7.7,26.1,11,53.2,9.8,81.4c-1.5,32.3-8.8,62.6-21.6,90.9
	c-12.9,28.3-30.4,52.2-52.6,71.6c-38,33.7-82.4,48.5-133.4,44.6c-16.8-1.4-34.2-5-52-10.8c-20.3-6.7-37-15-50.2-25
	c-25.6-19.2-45.5-45.2-59.8-77.8c-14.4-32.8-21.2-67.8-20.4-104.9c0.9-35.4,8.3-67.5,22.4-96.3c14.1-28.7,33.7-51.6,58.7-68.8
	c24.9-17.2,53.8-27.5,86.8-30.9C268.1,15.6,300.4,19.4,332,30.4"/>
<g transform="matrix(1.47 0 0 -1.47 474.41 418.44)">
	<g vector-effect="non-scaling-stroke">
		<path class="st1" d="M-3.9,46.1c7.7-5.5,13.7-12.9,18.1-22.2C18.4,14.6,20,5,19.1-4.7c-0.8-8.6-3.6-16.2-8.3-22.9
			c-4.9-6.8-11.3-12-19.2-15.7l-13.3,28.6c5.7,2.7,8.9,7,9.4,13c0.4,4-0.3,8.1-2.2,12.3c-1.9,4.3-4.4,7.5-7.5,9.7L-3.9,46.1z"/>
	</g>
</g>
<g transform="matrix(1.47 0 0 -1.47 605.78 279.7)">
	<g vector-effect="non-scaling-stroke">
		<polygon class="st1" points="8.8,-18.6 9.7,-65.2 26.9,-65.2 26.9,-90.7 -33.2,-90.7 -33.2,-65.2 -14.1,-65.2 -15,-18.2 
			-64.1,67.9 -81,67.9 -81,93.5 -26.3,93.5 -26.3,67.9 -36.1,67.9 -2.2,8.4 32.2,58.5 19.3,59.5 20.9,85 78.3,80.8 76.7,55.2 
			60.4,56.5 		"/>
	</g>
</g>
<g transform="matrix(1.47 0 0 -1.47 789.59 296.39)">
	<g vector-effect="non-scaling-stroke">
		<path class="st1" d="M24.3-12.4L5.6,57.9l-27-68.5L24.3-12.4z M78.3-64.9l1-23.7l-58.5-2.5l-1.1,23.7l19.1,0.8l-8,30.1l-61.4,2.3
			l-9-22.8l9.9-0.3L-30.6-81l-51.3,1.8l0.8,23.7l16.2-0.5L-15.1,70l-14.6,0.2l0.3,23.7l70.2-0.8l-0.3-23.7l-13.3,0.1l35.9-135
			L78.3-64.9z"/>
	</g>
</g>
<g transform="matrix(1.47 0 0 -1.47 980.45 252.55)">
	<g>
		<polygon class="st1" points="-20,-58.5 15.2,-59.9 22.1,127.4 -12.9,128.8 		"/>
	</g>
	<g>
		<path class="st1" d="M-3.9-84.1c5.7,0,10.6-2.1,14.7-6.3c4.2-4.1,6.3-9,6.3-14.7c0-5.7-2.1-10.7-6.3-14.9c-4.1-4.1-9-6.1-14.7-6.1
			c-5.8,0-10.8,2-14.9,6.1c-4.1,4.2-6.1,9.1-6.1,14.9c0,5.7,2,10.6,6.1,14.7C-14.7-86.2-9.7-84.1-3.9-84.1z"/>
	</g>
</g>
</svg>
